{
	"asset":{
		"generator":"Khronos glTF Blender I/O v4.0.44",
		"version":"2.0"
	},
	"extensionsUsed":[
		"KHR_materials_specular",
		"KHR_materials_ior"
	],
	"scene":0,
	"scenes":[
		{
			"name":"Scene",
			"nodes":[
				7
			]
		}
	],
	"nodes":[
		{
			"name":"Cameras"
		},
		{
			"mesh":0,
			"name":"Acacia_Dry_Green__Mature__Trunk_Mesh_0"
		},
		{
			"name":"Mats"
		},
		{
			"children":[
				1,
				2
			],
			"name":"Acacia_Dry_Green__Mature__Trunk_item"
		},
		{
			"children":[
				3
			],
			"name":"Acacia_Dry_Green__Mature__Trunk"
		},
		{
			"children":[
				4
			],
			"name":"Geometry"
		},
		{
			"name":"Materials"
		},
		{
			"children":[
				0,
				5,
				6
			],
			"name":"World"
		}
	],
	"materials":[
		{
			"doubleSided":true,
			"extensions":{
				"KHR_materials_specular":{
					"specularColorFactor":[
						0.0,
						0.0,
						0.0
					]
				},
				"KHR_materials_ior":{
					"ior":1.4500000476837158
				}
			},
			"name":"Acacia_Trunk_baked.001",
			"pbrMetallicRoughness":{
				"baseColorTexture":{
					"index":0
				},
				"metallicFactor":0,
				"roughnessFactor":0.5
			}
		},
		{
			"alphaMode":"BLEND",
			"doubleSided":true,
			"extensions":{
				"KHR_materials_specular":{
					"specularColorFactor":[
						0.4000000059604645,
						0.4000000059604645,
						0.4000000059604645
					]
				},
				"KHR_materials_ior":{
					"ior":1.4500000476837158
				}
			},
			"name":"Acacia_Leaves_1_baked.001",
			"pbrMetallicRoughness":{
				"baseColorTexture":{
					"index":1
				},
				"metallicFactor":0,
				"roughnessFactor":0.5
			}
		},
		{
			"alphaMode":"BLEND",
			"doubleSided":true,
			"extensions":{
				"KHR_materials_specular":{
					"specularColorFactor":[
						0.4000000059604645,
						0.4000000059604645,
						0.4000000059604645
					]
				},
				"KHR_materials_ior":{
					"ior":1.4500000476837158
				}
			},
			"name":"Acacica_Leaves_2_baked.001",
			"pbrMetallicRoughness":{
				"baseColorTexture":{
					"index":2
				},
				"metallicFactor":0,
				"roughnessFactor":0.5
			}
		},
		{
			"alphaMode":"BLEND",
			"doubleSided":true,
			"extensions":{
				"KHR_materials_specular":{
					"specularColorFactor":[
						0.4000000059604645,
						0.4000000059604645,
						0.4000000059604645
					]
				},
				"KHR_materials_ior":{
					"ior":1.4500000476837158
				}
			},
			"name":"Acacica_Leaves_3_baked.001",
			"pbrMetallicRoughness":{
				"baseColorTexture":{
					"index":3
				},
				"metallicFactor":0,
				"roughnessFactor":0.5
			}
		}
	],
	"meshes":[
		{
			"name":"Acacia_Dry_Green__Mature__Trunk_Mesh_0.001",
			"primitives":[
				{
					"attributes":{
						"POSITION":0,
						"NORMAL":1,
						"TEXCOORD_0":2
					},
					"indices":3,
					"material":0
				},
				{
					"attributes":{
						"POSITION":4,
						"NORMAL":5,
						"TEXCOORD_0":6
					},
					"indices":7,
					"material":1
				},
				{
					"attributes":{
						"POSITION":8,
						"NORMAL":9,
						"TEXCOORD_0":10
					},
					"indices":11,
					"material":2
				},
				{
					"attributes":{
						"POSITION":12,
						"NORMAL":13,
						"TEXCOORD_0":14
					},
					"indices":15,
					"material":3
				}
			]
		}
	],
	"textures":[
		{
			"sampler":0,
			"source":0
		},
		{
			"sampler":0,
			"source":1
		},
		{
			"sampler":0,
			"source":2
		},
		{
			"sampler":0,
			"source":3
		}
	],
	"images":[
		{
			"mimeType":"image/png",
			"name":"Acacia_Dry_Green__Mature__Acacia_Trunk_baked_Color",
			"uri":"Acacia_Dry_Green__Mature__Acacia_Trunk_baked_Color.png"
		},
		{
			"mimeType":"image/png",
			"name":"Acacia_Dry_Green__Mature__Acacia_Leaves_1_baked_Color-Acacia_Dry_Green__Mature__Acacia_Leaves_1_baked_Opacity",
			"uri":"Acacia_Dry_Green__Mature__Acacia_Leaves_1_baked_Color-Acacia_Dry_Green__Mature__Acacia_Leaves_1_baked_Opacity.png"
		},
		{
			"mimeType":"image/png",
			"name":"Acacia_Dry_Green__Mature__Acacica_Leaves_2_baked_Color-Acacia_Dry_Green__Mature__Acacica_Leaves_2_baked_Opacity",
			"uri":"Acacia_Dry_Green__Mature__Acacica_Leaves_2_baked_Color-Acacia_Dry_Green__Mature__Acacica_Leaves_2_baked_Opacity.png"
		},
		{
			"mimeType":"image/png",
			"name":"Acacia_Dry_Green__Mature__Acacica_Leaves_3_baked_Color-Acacia_Dry_Green__Mature__Acacica_Leaves_3_baked_Opacity",
			"uri":"Acacia_Dry_Green__Mature__Acacica_Leaves_3_baked_Color-Acacia_Dry_Green__Mature__Acacica_Leaves_3_baked_Opacity.png"
		}
	],
	"accessors":[
		{
			"bufferView":0,
			"componentType":5126,
			"count":31875,
			"max":[
				2.981955051422119,
				5.0904340744018555,
				2.751579999923706
			],
			"min":[
				-3.074697732925415,
				0,
				-3.0505943298339844
			],
			"type":"VEC3"
		},
		{
			"bufferView":1,
			"componentType":5126,
			"count":31875,
			"type":"VEC3"
		},
		{
			"bufferView":2,
			"componentType":5126,
			"count":31875,
			"type":"VEC2"
		},
		{
			"bufferView":3,
			"componentType":5123,
			"count":93705,
			"type":"SCALAR"
		},
		{
			"bufferView":4,
			"componentType":5126,
			"count":1646,
			"max":[
				2.9360668659210205,
				5.024202346801758,
				3.0229244232177734
			],
			"min":[
				-3.196723222732544,
				2.7747409343719482,
				-3.253612995147705
			],
			"type":"VEC3"
		},
		{
			"bufferView":5,
			"componentType":5126,
			"count":1646,
			"type":"VEC3"
		},
		{
			"bufferView":6,
			"componentType":5126,
			"count":1646,
			"type":"VEC2"
		},
		{
			"bufferView":7,
			"componentType":5123,
			"count":2448,
			"type":"SCALAR"
		},
		{
			"bufferView":8,
			"componentType":5126,
			"count":1488,
			"max":[
				3.1907715797424316,
				5.122502326965332,
				2.57684326171875
			],
			"min":[
				-3.221942663192749,
				3.0258305072784424,
				-3.3710620403289795
			],
			"type":"VEC3"
		},
		{
			"bufferView":9,
			"componentType":5126,
			"count":1488,
			"type":"VEC3"
		},
		{
			"bufferView":10,
			"componentType":5126,
			"count":1488,
			"type":"VEC2"
		},
		{
			"bufferView":11,
			"componentType":5123,
			"count":2202,
			"type":"SCALAR"
		},
		{
			"bufferView":12,
			"componentType":5126,
			"count":1682,
			"max":[
				3.1382369995117188,
				5.216423511505127,
				2.9951839447021484
			],
			"min":[
				-3.3526108264923096,
				2.700573205947876,
				-3.33866548538208
			],
			"type":"VEC3"
		},
		{
			"bufferView":13,
			"componentType":5126,
			"count":1682,
			"type":"VEC3"
		},
		{
			"bufferView":14,
			"componentType":5126,
			"count":1682,
			"type":"VEC2"
		},
		{
			"bufferView":15,
			"componentType":5123,
			"count":2496,
			"type":"SCALAR"
		}
	],
	"bufferViews":[
		{
			"buffer":0,
			"byteLength":382500,
			"byteOffset":0,
			"target":34962
		},
		{
			"buffer":0,
			"byteLength":382500,
			"byteOffset":382500,
			"target":34962
		},
		{
			"buffer":0,
			"byteLength":255000,
			"byteOffset":765000,
			"target":34962
		},
		{
			"buffer":0,
			"byteLength":187410,
			"byteOffset":1020000,
			"target":34963
		},
		{
			"buffer":0,
			"byteLength":19752,
			"byteOffset":1207412,
			"target":34962
		},
		{
			"buffer":0,
			"byteLength":19752,
			"byteOffset":1227164,
			"target":34962
		},
		{
			"buffer":0,
			"byteLength":13168,
			"byteOffset":1246916,
			"target":34962
		},
		{
			"buffer":0,
			"byteLength":4896,
			"byteOffset":1260084,
			"target":34963
		},
		{
			"buffer":0,
			"byteLength":17856,
			"byteOffset":1264980,
			"target":34962
		},
		{
			"buffer":0,
			"byteLength":17856,
			"byteOffset":1282836,
			"target":34962
		},
		{
			"buffer":0,
			"byteLength":11904,
			"byteOffset":1300692,
			"target":34962
		},
		{
			"buffer":0,
			"byteLength":4404,
			"byteOffset":1312596,
			"target":34963
		},
		{
			"buffer":0,
			"byteLength":20184,
			"byteOffset":1317000,
			"target":34962
		},
		{
			"buffer":0,
			"byteLength":20184,
			"byteOffset":1337184,
			"target":34962
		},
		{
			"buffer":0,
			"byteLength":13456,
			"byteOffset":1357368,
			"target":34962
		},
		{
			"buffer":0,
			"byteLength":4992,
			"byteOffset":1370824,
			"target":34963
		}
	],
	"samplers":[
		{
			"magFilter":9729,
			"minFilter":9987
		}
	],
	"buffers":[
		{
			"byteLength":1375816,
			"uri":"scene.bin"
		}
	]
}
